/* XPM */
static char *_5e4deced7ea495bc4b1a17e45a269a7jMxk5065bgCIC3pG[] = {
/* columns rows colors chars-per-pixel */
"64 64 11 1 ",
"  c #47B737",
". c #4FC73F",
"X c #4FCF3F",
"o c #57DF47",
"O c #57D74F",
"+ c #67DF5F",
"@ c #77EF6F",
"# c #979F37",
"$ c #F7A700",
"% c #F7DF00",
"& c #F6F6F6",
/* pixels */
"ooooooooooooXXXXXXXXoooooooooooooooooooooooooooooooooooooooooooo",
"ooooooooooooXXXXXXXXoooooooooooooooooooooooooooooooooooooooooooo",
"ooooooooooooXXXXXXXXoooooooooooooooooooooooooooooooooooooooooooo",
"ooooooooooooXXXXXXXXoooooooooooooooooooooooooooooooooooooooooooo",
"ooooooooXXXX%%%%%%%%XXXXoooooooooooooooooooooooooooooooooooooooo",
"ooooooooXXXX%%%%%%%%XXXXoooooooooooooooooooooooooooooooooooooooo",
"ooooooooXXXX%%%%%%%%XXXXoooooooooooooooooooooooooooooooooooooooo",
"ooooooooXXXX%%%%%%%%XXXXoooooooooooooooooooooooooooooooooooooooo",
"ooooXXXX%%%%########%%%%XXXXooooooooooooooooXXXXXXXXoooooooooooo",
"ooooXXXX%%%%########%%%%XXXXooooooooooooooooXXXXXXXXoooooooooooo",
"ooooXXXX%%%%########%%%%XXXXooooooooooooooooXXXXXXXXoooooooooooo",
"ooooXXXX%%%%########%%%%XXXXooooooooooooooooXXXXXXXXoooooooooooo",
"XXXX    %%%%########%%%%    XXXXooooooooXXXX&&&&&&&&XXXXoooooooo",
"XXXX    %%%%########%%%%    XXXXooooooooXXXX&&&&&&&&XXXXoooooooo",
"XXXX    %%%%########%%%%    XXXXooooooooXXXX&&&&&&&&XXXXoooooooo",
"XXXX    %%%%########%%%%    XXXXooooooooXXXX&&&&&&&&XXXXoooooooo",
"XXXX        %%%%%%%%        XXXXooooXXXX&&&&########&&&&XXXXoooo",
"XXXX        %%%%%%%%        XXXXooooXXXX&&&&########&&&&XXXXoooo",
"XXXX        %%%%%%%%        XXXXooooXXXX&&&&########&&&&XXXXoooo",
"XXXX        %%%%%%%%        XXXXooooXXXX&&&&########&&&&XXXXoooo",
"ooooXXXX                XXXXooooXXXX    &&&&########&&&&    XXXX",
"ooooXXXX                XXXXooooXXXX    &&&&########&&&&    XXXX",
"ooooXXXX                XXXXooooXXXX    &&&&########&&&&    XXXX",
"ooooXXXX                XXXXooooXXXX    &&&&########&&&&    XXXX",
"ooooooooooooooooooooooooooooXXXXXXXX        &&&&&&&&        XXXX",
"ooooooooooooooooooooooooooooXXXXXXXX        &&&&&&&&        XXXX",
"ooooooooooooooooooooooooooooXXXXXXXX        &&&&&&&&        XXXX",
"ooooooooooooooooooooooooooooXXXXXXXX        &&&&&&&&        XXXX",
"ooooooooooooooooooooooooXXXX$$$$$$$$XXXX                XXXXoooo",
"ooooooooooooooooooooooooXXXX$$$$$$$$XXXX                XXXXoooo",
"ooooooooooooooooooooooooXXXX$$$$$$$$XXXX                XXXXoooo",
"ooooooooooooooooooooooooXXXX$$$$$$$$XXXX                XXXXoooo",
"ooooooooooooooooooooXXXX$$$$########$$$$XXXXoooooooooooooooooooo",
"ooooooooooooooooooooXXXX$$$$########$$$$XXXXoooooooooooooooooooo",
"ooooooooooooooooooooXXXX$$$$########$$$$XXXXoooooooooooooooooooo",
"ooooooooooooooooooooXXXX$$$$########$$$$XXXXoooooooooooooooooooo",
"ooooooooooooooooXXXX    $$$$########$$$$    XXXXoooooooooooooooo",
"ooooooooooooooooXXXX    $$$$########$$$$    XXXXoooooooooooooooo",
"ooooooooooooooooXXXX    $$$$########$$$$    XXXXoooooooooooooooo",
"ooooooooooooooooXXXX    $$$$########$$$$    XXXXoooooooooooooooo",
"ooooooooooooooooXXXX        $$$$$$$$        XXXXoooooooooooooooo",
"ooooooooooooooooXXXX        $$$$$$$$        XXXXoooooooooooooooo",
"ooooooooooooooooXXXX        $$$$$$$$        XXXXoooooooooooooooo",
"ooooooooooooooooXXXX        $$$$$$$$        XXXXoooooooooooooooo",
"ooooooooOOOOOOOOooooXXXX                XXXXoooo++++@@@@++++oooo",
"ooooooooOOOOOOOOooooXXXX                XXXXoooo++++@@@@++++oooo",
"ooooooooOOOOOOOOooooXXXX                XXXXoooo++++@@@@++++oooo",
"ooooooooOOOOOOOOooooXXXX                XXXXoooo++++@@@@++++oooo",
"ooooOOOOXXXXXXXXOOOOoooooooooooo++++@@@@OOOO....XXXXooooXXXXOOOO",
"ooooOOOOXXXXXXXXOOOOoooooooooooo++++@@@@OOOO....XXXXooooXXXXOOOO",
"ooooOOOOXXXXXXXXOOOOoooooooooooo++++@@@@OOOO....XXXXooooXXXXOOOO",
"ooooOOOOXXXXXXXXOOOOoooooooooooo++++@@@@OOOO....XXXXooooXXXXOOOO",
"ooooOOOOXXXXXXXXOOOOooooooooOOOOXXXXooooXXXXooooXXXX....XXXXoooo",
"ooooOOOOXXXXXXXXOOOOooooooooOOOOXXXXooooXXXXooooXXXX....XXXXoooo",
"ooooOOOOXXXXXXXXOOOOooooooooOOOOXXXXooooXXXXooooXXXX....XXXXoooo",
"ooooOOOOXXXXXXXXOOOOooooooooOOOOXXXXooooXXXXooooXXXX....XXXXoooo",
"ooooooooOOOOOOOOooooooooooooooooXXXX....XXXXoooooooooooooooooooo",
"ooooooooOOOOOOOOooooooooooooooooXXXX....XXXXoooooooooooooooooooo",
"ooooooooOOOOOOOOooooooooooooooooXXXX....XXXXoooooooooooooooooooo",
"ooooooooOOOOOOOOooooooooooooooooXXXX....XXXXoooooooooooooooooooo",
"oooooooooooooooooooooooooooooooooooooooooooooooooooooooooooooooo",
"oooooooooooooooooooooooooooooooooooooooooooooooooooooooooooooooo",
"oooooooooooooooooooooooooooooooooooooooooooooooooooooooooooooooo",
"oooooooooooooooooooooooooooooooooooooooooooooooooooooooooooooooo"
};
