/* XPM */
static char *da2f2c74505d4b0cc802d409df26466e2c0ov8xryyXaI9lV[] = {
/* columns rows colors chars-per-pixel */
"64 64 109 2 ",
"   c black",
".  c #0D2F07",
"X  c #0D3008",
"o  c #0E340A",
"O  c #133E0C",
"+  c #15410E",
"@  c #15450F",
"#  c #17460F",
"$  c #16480F",
"%  c #154710",
"&  c #174A10",
"*  c #194D12",
"=  c #1B5113",
"-  c #1B5314",
";  c #1C5214",
":  c #1B5415",
">  c #1D5715",
",  c #1E5816",
"<  c #1D5B16",
"1  c #1F5B16",
"2  c #205F18",
"3  c #226018",
"4  c #226119",
"5  c #22651A",
"6  c #24661B",
"7  c #24681B",
"8  c #266B1D",
"9  c #29711E",
"0  c #29751F",
"q  c #29761F",
"w  c #287320",
"e  c #2A7920",
"r  c #2E7B22",
"t  c #2E7F24",
"y  c #3C4B4B",
"u  c #425151",
"i  c #B92400",
"p  c red",
"a  c #FF7000",
"s  c #2E8125",
"d  c #308425",
"f  c #328727",
"g  c #338A27",
"h  c #348C27",
"j  c #338D28",
"k  c #358E2B",
"l  c #36942A",
"z  c #37962D",
"x  c #38942B",
"c  c #3B992D",
"v  c #3CA12E",
"b  c #3CA230",
"n  c #3EA631",
"m  c #42933C",
"M  c #41AD33",
"N  c #41A934",
"B  c #41AE34",
"V  c #44AF34",
"C  c #42B034",
"Z  c #44B336",
"A  c #47B737",
"S  c #46BA37",
"D  c #47BA3A",
"F  c #47BD39",
"G  c #48BC3B",
"H  c #4BBE3C",
"J  c #4AC43B",
"K  c #4CC03C",
"L  c #4BC63C",
"P  c #4EC53E",
"I  c #4FC73F",
"U  c #4DCA3D",
"Y  c #4FCF3F",
"T  c #479441",
"R  c #469B40",
"E  c #4A9845",
"W  c #55AE4F",
"Q  c #4AB943",
"!  c #4EC547",
"~  c #4FCB40",
"^  c #51D042",
"/  c #54D844",
"(  c #57DF47",
")  c #56D44E",
"_  c #57D64F",
"`  c #57D74F",
"'  c #5ECB57",
"]  c #5FCE57",
"[  c #61D159",
"{  c #67DF5F",
"}  c #67D060",
"|  c #6FE168",
" . c #71E369",
".. c #72E76B",
"X. c #75EC6D",
"o. c #77EF6F",
"O. c #979F37",
"+. c #FFCC00",
"@. c #F7DF00",
"#. c #787886",
"$. c #D0B4ED",
"%. c #D5B8F2",
"&. c #D7BAF5",
"*. c #D8BBF6",
"=. c #DBBDF9",
"-. c #DEC0FC",
";. c #E0C2FF",
":. c #F6F6F6",
">. c #F8F8F8",
/* pixels */
"( ( ( ( ( ( ( ( ( ( ( ( Y Y Y Y Y Y Y Y ( ( ( ( ( ( ( ( ( ( ( ( ( ( ( ( ( ( ( ( ( ( ( ( ( ( ( ( ( ( ( ( ( ( ( ( ( ( ( ( ( ( ( ( ",
"( ( ( ( ( ( ( ( ( ( ( ( Y Y Y Y Y Y Y Y ( ( ( ( ( ( ( ( ( ( ( ( ( ( ( ( ( ( ( ( ( ( ( ( ( ( ( ( ( ( ( ( ( ( ( ( ( ( ( ( ( ( ( ( ",
"( ( ( ( ( ( ( ( ( ( ( ( Y Y Y Y Y Y Y Y ( ( ( ( ( ( ( ( ( ( ( ( ( ( ( ( ( ( ( ( ( ( ( ( ( ( ( ( ( ( ( ( ( ( ( ( ( ( ( ( ( ( ( ( ",
"( ( ( ( ( ( ( ( ( ( ( ( Y Y Y Y Y Y Y Y ( ( ( ( ( ( ( ( ( ( ( ( ( ( ( ( ( ( ( ( ( ( ( ( ( ( ( ( ( ( ( ( ( ( ( ( ( ( ( ( ( ( ( ( ",
"( ( ( ( ( ( ( ( Y Y Y Y @.@.@.@.@.@.@.@.Y Y Y Y ( ( ( ( ( ( ( ( ( ( ( ( ( ( ( ( ( ( ( ( ( ( ( ( ( ( ( ( ( ( ( ( ( ( ( ( ( ( ( ( ",
"( ( ( ( ( ( ( ( Y Y Y Y @.@.@.@.@.@.@.@.Y Y Y Y ( ( ( ( ( ( ( ( ( ( ( ( ( ( ( ( ( ( ( ( ( ( ( ( ( ( ( ( ( ( ( ( ( ( ( ( ( ( ( ( ",
"( ( ( ( ( ( ( ( Y Y Y Y @.@.@.@.@.@.@.@.Y Y Y Y ( ( ( ( ( ( ( ( ( ( ( ( ( ( ( ( ( ( ( ( ( ( ( ( ( ( ( ( ( ( ( ( ( ( ( ( ( ( ( ( ",
"( ( ( ( ( ( ( ( Y Y Y Y @.@.@.@.@.@.@.@.Y Y Y Y ( ( ( ( ( ( ( ( ( ( ( ( ( ( ( ( ( ( ( ( ( ( ( ( ( ( ( ( ( ( ( ( ( ( ( ( ( ( ( ( ",
"( ( ( ( Y Y Y Y @.@.@.@.O.O.O.O.O.O.O.O.@.@.@.@.Y Y Y Y ( ( ( ( ( ( ( ( ( ( ( ( ( ( ( ( Y Y Y Y Y Y Y Y ( ( ( ( ( ( ( ( ( ( ( ( ",
"( ( ( ( Y Y Y Y @.@.@.@.O.O.O.O.O.O.O.O.@.@.@.@.Y Y Y Y ( ( ( ( ( ( ( ( ( ( ( ( ( ( ( ( Y Y Y Y Y Y Y Y ( ( ( ( ( ( ( ( ( ( ( ( ",
"( ( ( ( Y Y Y Y @.@.@.@.O.O.O.O.O.O.O.O.@.@.@.@.Y Y Y Y ( ( ( ( ( ( ( ( ( ( ( ( ( ( ( ( Y Y Y Y Y Y Y Y ( ( ( ( ( ( ( ( ( ( ( ( ",
"( ( ( ( Y Y Y Y @.@.@.@.O.O.O.O.O.O.O.O.@.@.@.@.Y Y Y Y ( ( ( ( ( ( ( ( ( ( ( ( ( ( ( ( Y Y Y Y Y Y Y Y ( ( ( ( ( ( ( ( ( ( ( ( ",
"Y Y Y Y A A A A @.@.@.@.O.O.O.O.O.O.O.O.@.@.@.@.A A A A Y Y Y Y ( ( ( ( ( ( ( ( Y Y Y Y :.:.:.:.:.:.:.:.Y Y Y Y ( ( ( ( ( ( ( ( ",
"Y Y Y Y A A A A @.@.@.@.O.O.O.O.O.O.O.O.@.@.@.@.A A A A Y Y Y Y ( ( ( ( ( ( ( ( Y Y Y Y :.:.:.:.:.:.:.:.Y Y Y Y ( ( ( ( ( ( ( ( ",
"Y Y Y Y A A A A @.@.@.@.O.O.O.O.O.O.O.O.@.@.@.@.A A A A Y Y Y Y ( ( ( ( ( ( ( ( Y Y Y Y :.:.:.:.:.:.:.:.Y Y Y Y ( ( ( ( ( ( ( ( ",
"Y Y Y Y A A A A @.@.@.@.O.O.O.O.O.O.O.O.@.@.@.@.A A A A Y Y Y Y ( ( ( ( ( ( ( ( Y Y Y Y :.:.:.:.:.:.:.:.Y Y Y Y ( ( ( ( ( ( ( ( ",
"Y Y Y Y A A A A A A A A @.@.@.@.@.@.@.@.A A A A A A A A Y Y Y Y ( ( ( ( Y Y Y Y :.:.:.:.O.O.O.O.O.O.O.O.:.:.:.:.Y Y Y Y ( ( ( ( ",
"Y Y Y Y A A A A A A A A @.@.@.@.@.@.@.@.A A A A A A A A Y Y Y Y ( ( ( ( Y Y Y Y :.:.:.:.O.O.O.O.O.O.O.O.:.:.:.:.Y Y Y Y ( ( ( ( ",
"Y Y Y Y A A A A A A A A @.@.@.@.@.@.@.@.A A A A                                 :.:.:.:.O.O.O.O.O.O.O.O.:.:.:.:.Y Y Y Y ( ( ( ( ",
"Y Y Y Y A A A A A A A A @.@.@.@.@.@.@.@.A A A A                                 :.:.:.:.O.O.O.O.O.O.O.O.:.:.:.:.Y Y Y Y ( ( ( ( ",
"( ( ( ( Y Y Y Y A A A A A A A A A A A A A A A A                                 :.:.:.:.O.O.O.O.O.O.O.O.:.:.:.:.A A A A Y Y Y Y ",
"( ( ( ( Y Y Y Y A A A A A A A A A A A A A       a a a a a a a a a a a a a a a a       :.O.O.O.O.O.O.O.O.:.:.:.:.A A A A Y Y Y Y ",
"( ( ( ( Y Y Y Y A A A A A A A A A A A A A       a a a a a a a a a a a a a a a a       :.O.O.O.O.O.O.O.O.:.:.:.:.A A A A Y Y Y Y ",
"( ( ( ( Y Y Y Y A A A A A A A A A A A A A       a a a a a a a a a a a a a a a a       :.O.O.O.O.O.O.O.O.:.:.:.:.A A A A Y Y Y Y ",
"( ( ( ( ( ( ( ( ( ( ( ( ( ( ( ( ( (       a a a >.>.>.+.+.+.a a a a a a a a a a p p p       :.:.:.:.:.:.A A A A A A A A Y Y Y Y ",
"( ( ( ( ( ( ( ( ( ( ( ( ( ( ( ( ( (       a a a >.>.>.+.+.+.a a a a a a a a a a p p p       :.:.:.:.:.:.A A A A A A A A Y Y Y Y ",
"( ( ( ( ( ( ( ( ( ( ( ( ( ( ( ( ( (       a a a >.>.>.+.+.+.a a a a a a a a a a p p p       :.:.:.:.:.:.A A A A A A A A Y Y Y Y ",
"( ( ( ( ( ( ( ( ( ( ( ( ( ( ( ( ( (       a a a +.+.+.a a a a a a a a a a a a a p p p       :.:.:.:.:.:.A A A A A A A A Y Y Y Y ",
"( ( ( ( ( ( ( ( ( ( ( ( ( ( ( ( ( (       a a a +.+.+.a a a a a a a a a a a a a p p p       A A A A A A A A A A Y Y Y Y ( ( ( ( ",
"( ( ( ( ( ( ( ( ( ( ( ( ( ( ( ( ( (       a a a +.+.+.a a a a a a a a a a a a a p p p       A A A A A A A A A A Y Y Y Y ( ( ( ( ",
"( ( ( ( ( ( ( ( ( ( ( ( ( ( ( ( ( (       a a a a a a a a a a a a a a a a a a a p p p       A A A A A A A A A A Y Y Y Y ( ( ( ( ",
"( ( ( ( ( ( ( ( ( ( ( ( ( ( ( ( ( (       a a a a a a a a a a a a a a a a a a a p p p       A A A A A A A A A A Y Y Y Y ( ( ( ( ",
"( ( ( ( ( ( ( ( ( ( ( ( ( ( ( ( ( (       a a a a a a a a a a a a a a a a a a a p p p       ( ( ( ( ( ( ( ( ( ( ( ( ( ( ( ( ( ( ",
"( ( ( ( ( ( ( ( ( ( ( ( ( ( ( ( ( (       a a a a a a a a a a a a a a a a a a a p p p       ( ( ( ( ( ( ( ( ( ( ( ( ( ( ( ( ( ( ",
"( ( ( ( ( ( ( ( ( ( ( ( ( ( ( ( ( (       i i i a a a u u u a a a a p p p p p p p p p       ( ( ( ( ( ( ( ( ( ( ( ( ( ( ( ( ( ( ",
"( ( ( ( ( ( ( ( ( ( ( ( ( ( ( ( ( (       i i i a a a u u u a a a a p p p p p p p p p       ( ( ( ( ( ( ( ( ( ( ( ( ( ( ( ( ( ( ",
"( ( ( ( ( ( ( ( ( ( ( ( ( ( ( ( Y Y       i i i a a a u u u a a a a p p p p p p p p p       Y Y ( ( ( ( ( ( ( ( ( ( ( ( ( ( ( ( ",
"( ( ( ( ( ( ( ( ( ( ( ( ( ( ( ( Y Y       #.#.#.u u u >.>.>.u u u u u u u u u u u u u       Y Y ( ( ( ( ( ( ( ( ( ( ( ( ( ( ( ( ",
"( ( ( ( ( ( ( ( ( ( ( ( ( ( ( ( Y Y       #.#.#.u u u >.>.>.u u u u u u u u u u u u u       J U ( ( ( ( ( ( ( ( ( ( ( ( ( ( ( ( ",
"( ( ( ( ( ( ( ( ( ( ( ( ( ( ( ( Y Y       #.#.#.u u u >.>.>.u u u u u u u u u u u u y       D L ( ( ( ( ( ( ( ( ( ( ( ( ( ( ( ( ",
"( ( ( ( ( ( ( ( ( ( ( ( ( ( ( ( Y Y Y Y A       ;.;.;.#.#.#.;.;.;.;.;.;.;.;.;.;.      - 1 2 B F ( ( ( ( ( ( ( ( ( ( ( ( ( ( ( ( ",
"( ( ( ( ( ( ( ( ( ( ( ( ( ( ( ( Y Y Y Y A       ;.;.;.#.#.#.;.;.;.;.;.;.;.;.;.-.      $ & : b F ( ( ( ( ( ( ( ( ( ( ( ( ( ( ( ( ",
"( ( ( ( ( ( ( ( ( ( ( ( ( ( ( ( Y Y Y Y A       ;.;.;.#.#.#.;.;.=.*.&.=.=.%.$.$.      * : 5 B J ( ( ( ( ( ( ( ( ( ( ( ( ( ( ( ( ",
"( ( ( ( ( ( ( ( ( ( ( ( ( ( ( ( Y Y Y Y V c g h                                 1 @ + * < 9 v L ( ( ( ( ( ( ( ( ( ( ( ( ( ( ( ( ",
"( ( ( ( ( ( ( ( ` ` ` ` ` ` ` ` ( ( ( ( J l 0 0                                 = o O 1 8 w N / { { { { o.o.o.o.{ { { { ( ( ( ( ",
"( ( ( ( ( ( ( ( ` ` ` ` ` ` ` ` ( ( ( ( J c 0 s                                 & X . : w w N / { { { { o.o.o.o.{ { { { ( ( ( ( ",
"( ( ( ( ( ( ( ( ` ` ` ` ` ` ` ` ( ( ( ( Y S A n f 3 * * : 4 2 8 r 9 * O O & ; 6 0 % * 8 n N D / { { { { o.o.o.o.{ { { { ( ( ( ( ",
"( ( ( ( ( ( ( ( ` ` ` ` ` ` ` ` ( ( ( ( Y Y Y ^ x 9 & # * 2 2 2 8 3 = * * ; 7 d j e w v ~ ~ ~ ( { { { { o.o.o.o.{ { { { ( ( ( ( ",
"( ( ( ( ` ` ` ` Y Y Y Y Y Y Y Y ` ` ` ` ( ( ( ( ( H x d g k x c R m m m m E W } ! D Q ! K H H P Y Y Y Y ( ( ( ( Y Y Y Y _ ` ` ` ",
"( ( ( ( ` ` ` ` Y Y Y Y Y Y Y Y ` ` ` ` ( ( ( ( ( Y P A H K P Y ' ' ] [  . ...o.) ) _ ` I I I I Y Y Y Y ( ( ( ( Y Y Y Y _ _ ` ` ",
"( ( ( ( ` ` ` ` Y Y Y Y Y Y Y Y ` ` ` ` ( ( ( ( ( ( ( ( ( ( ( ( { { { { o.o.o.o.) _ ` ` I I I I Y Y Y Y ( ( ( ( Y Y Y Y ` ` ` ` ",
"( ( ( ( ` ` ` ` Y Y Y Y Y Y Y Y ` ` ` ` ( ( ( ( ( ( ( ( ( ( ( ( { { { { o.o.o.o._ _ ` ` I I I I Y Y Y Y ( ( ( ( Y Y Y Y ` ` ` ` ",
"( ( ( ( ` ` ` ` Y Y Y Y Y Y Y Y ` ` ` ` ( ( ( ( ( ( ( ( _ _ ` ` Y Y Y Y ( ( ( ( Y Y Y Y ( ( ( ( Y Y Y Y U ~ P P Y Y Y Y ( ( ( ( ",
"( ( ( ( ` ` ` ` Y Y Y Y Y Y Y Y ` _ ` ` ( ( ( ( ( ( ( ( _ _ ` ` Y Y Y Y ( ( ( ( Y Y Y Y ( ( ( ( Y Y Y Y P ~ ! P Y Y Y Y ( ( ( ( ",
"( ( ( ( ` ` ` ` Y Y Y Y Y Y Y Y _ _ _ _ ( ( ( ( ( ( ( ( _ _ ` ` Y Y Y Y ( ( ( ( Y Y Y Y ( ( ( ( Y Y Y Y ! P P ~ Y Y Y Y ( ( ( ( ",
"( ( ( ( ` ` ` ` Y Y Y Y Y Y Y Y _ _ _ _ ( ( ( ( ( ( ( ( _ _ ` ` Y Y Y Y ( ( ( ( Y Y Y Y ( ( ( ( Y Y Y Y P P U ~ Y Y Y Y ( ( ( ( ",
"( ( ( ( ( ( ( ( ` ` ` ` ` ` ` ` ( ( ( ( ( ( ( ( ( ( ( ( ( ( ( ( Y Y Y Y P P ~ P Y Y Y Y ( ( ( ( ( ( ( ( ( ( ( ( ( ( ( ( ( ( ( ( ",
"( ( ( ( ( ( ( ( ` ` ` ` ` ` ` ` ( ( ( ( ( ( ( ( ( ( ( ( ( ( ( ( Y Y Y Y P ~ P ~ Y Y Y Y ( ( ( ( ( ( ( ( ( ( ( ( ( ( ( ( ( ( ( ( ",
"( ( ( ( ( ( ( ( ` ` ` ` ` ` ` ` ( ( ( ( ( ( ( ( ( ( ( ( ( ( ( ( Y Y Y Y ! H ~ P Y Y Y Y ( ( ( ( ( ( ( ( ( ( ( ( ( ( ( ( ( ( ( ( ",
"( ( ( ( ( ( ( ( ` ` ` ` ` ` ` ` ( ( ( ( ( ( ( ( ( ( ( ( ( ( ( ( Y Y Y Y I ~ P ~ Y Y Y Y ( ( ( ( ( ( ( ( ( ( ( ( ( ( ( ( ( ( ( ( ",
"( ( ( ( ( ( ( ( ( ( ( ( ( ( ( ( ( ( ( ( ( ( ( ( ( ( ( ( ( ( ( ( ( ( ( ( ( ( ( ( ( ( ( ( ( ( ( ( ( ( ( ( ( ( ( ( ( ( ( ( ( ( ( ( ",
"( ( ( ( ( ( ( ( ( ( ( ( ( ( ( ( ( ( ( ( ( ( ( ( ( ( ( ( ( ( ( ( ( ( ( ( ( ( ( ( ( ( ( ( ( ( ( ( ( ( ( ( ( ( ( ( ( ( ( ( ( ( ( ( ",
"( ( ( ( ( ( ( ( ( ( ( ( ( ( ( ( ( ( ( ( ( ( ( ( ( ( ( ( ( ( ( ( ( ( ( ( ( ( ( ( ( ( ( ( ( ( ( ( ( ( ( ( ( ( ( ( ( ( ( ( ( ( ( ( ",
"( ( ( ( ( ( ( ( ( ( ( ( ( ( ( ( ( ( ( ( ( ( ( ( ( ( ( ( ( ( ( ( ( ( ( ( ( ( ( ( ( ( ( ( ( ( ( ( ( ( ( ( ( ( ( ( ( ( ( ( ( ( ( ( "
};
