/* XPM */
static char *_a7ac796a2c64980d453dc576755c644D3KdG11oX4GyDP0n[] = {
/* columns rows colors chars-per-pixel */
"64 64 75 1 ",
"  c black",
". c #040101",
"X c #072304",
"o c #0D3208",
"O c #222222",
"+ c #3F3F3F",
"@ c #13410F",
"# c #14430F",
"$ c #174912",
"% c #184C12",
"& c #1B5215",
"* c #1C5515",
"= c #1F5A16",
"- c #1F5C19",
"; c #205C19",
": c #205F19",
"> c #24671D",
", c #25671D",
"< c #29741F",
"1 c #297321",
"2 c #2A7720",
"3 c #2B7A21",
"4 c #2C7821",
"5 c #425151",
"6 c #7B4242",
"7 c #777777",
"8 c #D42E04",
"9 c #FF4516",
"0 c #8C4252",
"q c #2F8126",
"w c #318325",
"e c #35902B",
"r c #37902B",
"t c #35922A",
"y c #37962B",
"u c #38932B",
"i c #39962C",
"p c #3C9B37",
"a c #3CA131",
"s c #3EA731",
"d c #44AD3E",
"f c #47B737",
"g c #46B338",
"h c #44B438",
"j c #46BA38",
"k c #47BB38",
"l c #4AC43B",
"z c #4FC73F",
"x c #4DC83F",
"c c #4FCF3F",
"v c #4DC146",
"b c #53D543",
"n c #57DF47",
"m c #57D74F",
"M c #67DF5F",
"N c #6AD763",
"B c #77EF6F",
"V c #979F37",
"C c #F7DF00",
"Z c #DE9473",
"A c #787886",
"S c #5A8CBD",
"D c gray60",
"F c #9F9F9F",
"G c #A7A7A7",
"H c gray69",
"J c #FFC594",
"K c #C0DDBF",
"L c #FFD6B5",
"P c gray76",
"I c #C8C8C8",
"U c gray84",
"Y c #F6F6F6",
"T c #F8F8F8",
"R c white",
/* pixels */
"nnnnnnnnnnnnccccccccnnnnnnnn99....88nnnnnnnnnnnnnnnnnnnnnnnnnnnn",
"nnnnnnnnnnnnccccccccnnnnnnnn99....88nnnnnnnnnnnnnnnnnnnnnnnnnnnn",
"nnnnnnnnnnnnccccccccnnn99888 RTHHH  88888nnnnnnnnnnnnnnnnnnnnnnn",
"nnnnnnnnnnnncccccccc999     FRRR..77     888nnnnnnnnnnnnnnnnnnnn",
"nnnnnnnnccccCCCCCCCC999     FF....77     888nnnnnnnnnnnnnnnnnnnn",
"nnnnnnnnccccCCCCCCCC   FFFFFFFF7777777777   nnnnnnnnnnnnnnnnnnnn",
"nnnnnnnnccccCCCCCCCC   FFFFFFFF7777777777   nnnnnnnnnnnnnnnnnnnn",
"nnnnnnnnccccCCCCCCCC   FFFFFFFF7777777777   nnnnnnnnnnnnnnnnnnnn",
"nnnnccccCCCCVVVVVVV8FFFFFFFFFFFFFF777000000788ccccccnnnnnnnnnnnn",
"nnnnccccCCCCVVVVVVV8FFFFFFFFFFFFFF777000000788ccccccnnnnnnnnnnnn",
"nnnnccccCCCCVVVVVVV FFFFFFFFFFFFF6666RRRRRR00 ccccccnnnnnnnnnnnn",
"nnnnccccCCCCVVVVVVV FFFFFFFFFFFFF6666RRRRRR00 ccccccnnnnnnnnnnnn",
"ccccffffCCCCVVVVVVV FFFFFFFFFFF66LLRRRRRRLL00 YYYYYYccccnnnnnnnn",
"ccccffffCCCCVVVVVVV FFFFFFFFFFF66LLRRRRRRLL00 YYYYYYccccnnnnnnnn",
"ccccffffCCCCVVVVVVV FFFFFFFFF66LLLLLLLL00007  YYYYYYccccnnnnnnnn",
"ccccffffCCCCVVVVVVVV   FFFFF766LLLLLLLL0000 YYYYYYYYccccnnnnnnnn",
"ccccffffffffCCCCCCCC   FFFF00LLJJ00000077   VVVVVVVVYYYYccccnnnn",
"ccccffffffffCCCCCCCCoX FFFF00LLJJ00000077   VVVVVVVVYYYYccccnnnn",
"ccccffffffffCCCCCCCCfff= 00LLJJ00777     YYYVVVVVVVVYYYYccccnnnn",
"ccccffffffffCCCCCCCCwuiKP00JJ00        GUPIDVVVVVVVVYYYYccccnnnn",
"nnnnccccffffffffffffffff 00JJ00         YYYYVVVVVVVVYYYYffffcccc",
"nnnnccccfffffffffffff  00LL00OOOOOOOOOOO   YVVVVVVVVYYYYffffcccc",
"nnnnccccfffffffffffff  00LL00OOOOOOOOOOO   YVVVVVVVVYYYYffffcccc",
"nnnnccccfffffffffffff  00ZZ00OOOOOOOOOOO   YVVVVVVVVYYYYffffcccc",
"nnnnnnnnnnnnnnnnnn   ++00ZZ00++OOOOOOOOOOO+   YYYYYYffffffffcccc",
"nnnnnnnnnnnnnnnnnn   ++00000000000000OOOOOO   YYYYYYffffffffcccc",
"nnnnnnnnnnnnnnnnnn   ++00000000000000OOOOOO   YYYYYYffffffffcccc",
"nnnnnnnnnnnnnnnnnn   6666ZZLLRRRRLLZZ6666OO   YYYYYYffffffffcccc",
"nnnnnnnnnnnnnnnnnn   6666ZZLLRRRRLLZZ6666OO   ffffffffffccccnnnn",
"nnnnnnnnnnnnnnnnnn 66RRLLLLRRRRRRRRLLLLRR66   ffffffffffccccnnnn",
"nnnnnnnnnnnnnnnnnn 66RRLLLLRRRRRRRRLLLLRR66   ffffffffffccccnnnn",
"nnnnnnnnnnnnnnnnnn 66ZZLLLLLLRRRRLLLLLLZZ66   ffffffffffccccnnnn",
"nnnnnnnnnnnnnnnnnn 66ZZLLLLLLRRRRLLLLLLZZ66   nnnnnnnnnnnnnnnnnn",
"nnnnnnnnnnnnnnnnnn   00JJRRRRLLLLRRRRJJ00OO   nnnnnnnnnnnnnnnnnn",
"nnnnnnnnnnnnnnnnnn   00JJRRRRLLLLRRRRJJ00OO   nnnnnnnnnnnnnnnnnn",
"nnnnnnnnnnnnnnnnnn   00ZZRRSSJJJJSSRRZZ00OO   nnnnnnnnnnnnnnnnnn",
"nnnnnnnnnnnnnnnncc   00ZZRRSSJJJJSSRRZZ00O+   ccnnnnnnnnnnnnnnnn",
"nnnnnnnnnnnnnnnncc   00ZZRRSSRRLLSSRRZZ0055   ccnnnnnnnnnnnnnnnn",
"nnnnnnnnnnnnnnnncc   00ZZRRSSRRLLSSRRZZ0055   ccnnnnnnnnnnnnnnnn",
"nnnnnnnnnnnnnnnncc   AA6666ZZLLJJZZ6600LL00   ccnnnnnnnnnnnnnnnn",
"nnnnnnnnnnnnnnnnccccf  6666ZZLLJJZZ6600LL00432ccnnnnnnnnnnnnnnnn",
"nnnnnnnnnnnnnnnnccccf  66LL66666666LL6600JJ00<ccnnnnnnnnnnnnnnnn",
"nnnnnnnnnnnnnnnnccccf  66LL66666666LL6600JJ00tccnnnnnnnnnnnnnnnn",
"nnnnnnnnnnnnnnnnccccffff 66JJZZZZJJ666600ZZ00kccnnnnnnnnnnnnnnnn",
"nnnnnnnnmmmmmmmmnnnncccc 66JJZZZZJJ666600ZZ00bnnMMMMBBBBMMMMnnnn",
"nnnnnnnnmmmmmmmmnnnncccc 66JJLLLLJJZZ66ZZ00lbxnnMMMMBBBBMMMMnnnn",
"nnnnnnnnmmmmmmmmnnnnccc66ZZ66ZZZZ66ZZ6600cccnnnnMMMMBBBBMMMMnnnn",
"nnnnnnnnmmmmmmmmnnnnccc66ZZ66ZZZZ66ZZ6600cccnnnnMMMMBBBBMMMMnnnn",
"nnnnmmmmccccccccmmmmn66LLZZ666666ZZ6666Bmmmmzzzzccccnnnnccccmmmm",
"nnnnmmmmccccccccmmmmn66LLZZ666666ZZ6666Bmmmmzzzzccccnnnnccccmmmm",
"nnnnmmmmccccccccmmmmn66JJ66aahx66ZZ66BBBmmmmzzzzccccnnnnccccmmmm",
"nnnnmmmmccccccccmmmmh66JJ66aahh66ZZ66NNNvvvvgghhccccnnnnccccmmmm",
"nnnnmmmmccccccccmmmmhae66eaaddd66LL66hhhskhkxxxxkccczzzzccccnnnn",
"nnnnmmmmccccccccmmmmaeq66ahhddd66LL66hhhskkkxxxxkccczzzzccccnnnn",
"nnnnmmmmccccccccmmmmhaqqeeahdddds66shhhhsjkjxxxxkccczzzzccccnnnn",
"nnnnmmmmccccccccmmmmxha<qqeappppy66ehhhhsjjjxxxxkccczzzzccccnnnn",
"nnnnnnnnmmmmmmmmnnnnxxaeq>-->>>>--33aaadskkkxxxxxnnnnnnnnnnnnnnn",
"nnnnnnnnmmmmmmmmnnnnxhe>>$@$&---****->tysskkxxxnnnnnnnnnnnnnnnnn",
"nnnnnnnnmmmmmmmmnnnnxhy=-@@$&&&-%%**;,wrsskhxxxnnnnnnnnnnnnnnnnn",
"nnnnnnnnmmmmmmmmnnnnxha<2&&&&&&$%#**;1rrsskkxxnnnnnnnnnnnnnnnnnn",
"nnnnnnnnnnnnnnnnnnnnnnp<1&&&&&&&----,raahxnnnnnnnnnnnnnnnnnnnnnn",
"nnnnnnnnnnnnnnnnnnnnnnnvxt1>-*&&--<<3tggxnnnnnnnnnnnnnnnnnnnnnnn",
"nnnnnnnnnnnnnnnnnnnnnnnnnnnnnxxxxxvfhhhhxnnnnnnnnnnnnnnnnnnnnnnn",
"nnnnnnnnnnnnnnnnnnnnnnnnnnnnnnnnnnnnnnnnnnnnnnnnnnnnnnnnnnnnnnnn"
};
