/* XPM */
static char *_711393e3ad24d19d301114d2ead89d7knfylJfxhWJ9V0yt[] = {
/* columns rows colors chars-per-pixel */
"16 16 4 1 ",
"  c #47EF87",
". c #4FF78F",
"X c #47E797",
"o c #67F79F",
/* pixels */
"........ .......",
"....... o .. ...",
"...... X.X. . ..",
"ooooo..    X.X .",
"ooooooooo..   .o",
"oooooooooooooooo",
"ooooooooo. ..ooo",
". ..oooo. o ..o.",
" . ..o.. X.X ...",
"X.X. ....   ... ",
".   o ..........",
".. X.X .........",
"...   ....... ..",
"............ . .",
"........... X.X ",
"............   ."
};
