/* XPM */
static char *_808709d5c344ec3f6db8dfeca1714a9AUi6lTbkf0sFjeUY[] = {
/* columns rows colors chars-per-pixel */
"16 16 9 1 ",
"  c #29A901",
". c #31B909",
"X c #198129",
"o c #299131",
"O c #498139",
"+ c #57C71F",
"@ c #67D737",
"# c #2FCF7F",
"$ c #4FF78F",
/* pixels */
"$$$$$$$  $$$$$$$",
"$$$$$$ ++ $$$$$$",
"$   $$ ++ $$   $",
"$o++ o.++.o ++o$",
"$o.++X....X++.o$",
"$$o..X....X..o$$",
"$ Xo .X..X. oX $",
"   XX X  X XX   ",
"O oo.. XX ..oo O",
"$o....o..o....o$",
"o+@+. .... .+@+o",
"X@@+oX++++Xo+@@X",
"#XXXOX+@@+XOXXX#",
"#.OOO X@@X OOO.#",
"$#  .##XX##.  #$",
"$$$$########$$$$"
};
