/* XPM */
static char *_cd6678680dc4a0cf6d810f73dc4b717q75HeT7MTAd7tUkW[] = {
/* columns rows colors chars-per-pixel */
"64 64 9 1 ",
"  c #29A901",
". c #31B909",
"X c #198129",
"o c #299131",
"O c #498139",
"+ c #47BF3F",
"@ c #57C71F",
"# c #67D737",
"$ c #57DF47",
/* pixels */
"$$$$$$$$$$$$$$$$$$$$$$$$$$$$        $$$$$$$$$$$$$$$$$$$$$$$$$$$$",
"$$$$$$$$$$$$$$$$$$$$$$$$$$$$        $$$$$$$$$$$$$$$$$$$$$$$$$$$$",
"$$$$$$$$$$$$$$$$$$$$$$$$$$$$        $$$$$$$$$$$$$$$$$$$$$$$$$$$$",
"$$$$$$$$$$$$$$$$$$$$$$$$$$$$        $$$$$$$$$$$$$$$$$$$$$$$$$$$$",
"$$$$$$$$$$$$$$$$$$$$$$$$    @@@@@@@@    $$$$$$$$$$$$$$$$$$$$$$$$",
"$$$$$$$$$$$$$$$$$$$$$$$$    @@@@@@@@    $$$$$$$$$$$$$$$$$$$$$$$$",
"$$$$$$$$$$$$$$$$$$$$$$$$    @@@@@@@@    $$$$$$$$$$$$$$$$$$$$$$$$",
"$$$$$$$$$$$$$$$$$$$$$$$$    @@@@@@@@    $$$$$$$$$$$$$$$$$$$$$$$$",
"$$$$            $$$$$$$$    @@@@@@@@    $$$$$$$$            $$$$",
"$$$$            $$$$$$$$    @@@@@@@@    $$$$$$$$            $$$$",
"$$$$            $$$$$$$$    @@@@@@@@    $$$$$$$$            $$$$",
"$$$$            $$$$$$$$    @@@@@@@@    $$$$$$$$            $$$$",
"$$$$oooo@@@@@@@@    oooo....@@@@@@@@....oooo    @@@@@@@@oooo$$$$",
"$$$$oooo@@@@@@@@    oooo....@@@@@@@@....oooo    @@@@@@@@oooo$$$$",
"$$$$oooo@@@@@@@@    oooo....@@@@@@@@....oooo    @@@@@@@@oooo$$$$",
"$$$$oooo@@@@@@@@    oooo....@@@@@@@@....oooo    @@@@@@@@oooo$$$$",
"$$$$oooo....@@@@@@@@XXXX................XXXX@@@@@@@@....oooo$$$$",
"$$$$oooo....@@@@@@@@XXXX................XXXX@@@@@@@@....oooo$$$$",
"$$$$oooo....@@@@@@@@XXXX................XXXX@@@@@@@@....oooo$$$$",
"$$$$oooo....@@@@@@@@XXXX................XXXX@@@@@@@@....oooo$$$$",
"$$$$$$$$oooo........XXXX................XXXX........oooo$$$$$$$$",
"$$$$$$$$oooo........XXXX................XXXX........oooo$$$$$$$$",
"$$$$$$$$oooo........XXXX................XXXX........oooo$$$$$$$$",
"$$$$$$$$oooo........XXXX................XXXX........oooo$$$$$$$$",
"$$$$    XXXXoooo    ....XXXX........XXXX....    ooooXXXX    $$$$",
"$$$$    XXXXoooo    ....XXXX........XXXX....    ooooXXXX    $$$$",
"$$$$    XXXXoooo    ....XXXX........XXXX....    ooooXXXX    $$$$",
"$$$$    XXXXoooo    ....XXXX........XXXX....    ooooXXXX    $$$$",
"            XXXXXXXX    XXXX        XXXX    XXXXXXXX            ",
"            XXXXXXXX    XXXX        XXXX    XXXXXXXX            ",
"            XXXXXXXX    XXXX        XXXX    XXXXXXXX            ",
"            XXXXXXXX    XXXX        XXXX    XXXXXXXX            ",
"OOOO    oooooooo........    XXXXXXXX    ........oooooooo    OOOO",
"OOOO    oooooooo........    XXXXXXXX    ........oooooooo    OOOO",
"OOOO    oooooooo........    XXXXXXXX    ........oooooooo    OOOO",
"OOOO    oooooooo........    XXXXXXXX    ........oooooooo    OOOO",
"$$$$oooo................oooo........oooo................oooo$$$$",
"$$$$oooo................oooo........oooo................oooo$$$$",
"$$$$oooo................oooo........oooo................oooo$$$$",
"$$$$oooo................oooo........oooo................oooo$$$$",
"oooo@@@@####@@@@....    ................    ....@@@@####@@@@oooo",
"oooo@@@@####@@@@....    ................    ....@@@@####@@@@oooo",
"oooo@@@@####@@@@....    ................    ....@@@@####@@@@oooo",
"oooo@@@@####@@@@....    ................    ....@@@@####@@@@oooo",
"XXXX########@@@@ooooXXXX@@@@@@@@@@@@@@@@XXXXoooo@@@@########XXXX",
"XXXX########@@@@ooooXXXX@@@@@@@@@@@@@@@@XXXXoooo@@@@########XXXX",
"XXXX########@@@@ooooXXXX@@@@@@@@@@@@@@@@XXXXoooo@@@@########XXXX",
"XXXX########@@@@ooooXXXX@@@@@@@@@@@@@@@@XXXXoooo@@@@########XXXX",
"++++XXXXXXXXXXXXOOOOXXXX@@@@########@@@@XXXXOOOOXXXXXXXXXXXX++++",
"++++XXXXXXXXXXXXOOOOXXXX@@@@########@@@@XXXXOOOOXXXXXXXXXXXX++++",
"++++XXXXXXXXXXXXOOOOXXXX@@@@########@@@@XXXXOOOOXXXXXXXXXXXX++++",
"++++XXXXXXXXXXXXOOOOXXXX@@@@########@@@@XXXXOOOOXXXXXXXXXXXX++++",
"++++....OOOOOOOOOOOO    XXXX########XXXX    OOOOOOOOOOOO....++++",
"++++....OOOOOOOOOOOO    XXXX########XXXX    OOOOOOOOOOOO....++++",
"++++....OOOOOOOOOOOO    XXXX########XXXX    OOOOOOOOOOOO....++++",
"++++....OOOOOOOOOOOO    XXXX########XXXX    OOOOOOOOOOOO....++++",
"$$$$++++        ....++++++++XXXXXXXX++++++++....        ++++$$$$",
"$$$$++++        ....++++++++XXXXXXXX++++++++....        ++++$$$$",
"$$$$++++        ....++++++++XXXXXXXX++++++++....        ++++$$$$",
"$$$$++++        ....++++++++XXXXXXXX++++++++....        ++++$$$$",
"$$$$$$$$$$$$$$$$++++++++++++++++++++++++++++++++$$$$$$$$$$$$$$$$",
"$$$$$$$$$$$$$$$$++++++++++++++++++++++++++++++++$$$$$$$$$$$$$$$$",
"$$$$$$$$$$$$$$$$++++++++++++++++++++++++++++++++$$$$$$$$$$$$$$$$",
"$$$$$$$$$$$$$$$$++++++++++++++++++++++++++++++++$$$$$$$$$$$$$$$$"
};
