/* XPM */
static char *_59b4b52695e489fe4c380ade0d418672MBTONyGuIcvUke0[] = {
/* columns rows colors chars-per-pixel */
"64 64 46 1 ",
"  c #13410F",
". c #14430F",
"X c #174912",
"o c #184C12",
"O c #1B5215",
"+ c #1C5515",
"@ c #1F5C19",
"# c #205F19",
"$ c #24671D",
"% c #25671D",
"& c #297321",
"* c #2A7321",
"= c #2A7821",
"- c #7B4242",
"; c #8C4252",
": c #2F8126",
"> c #308126",
", c #35902B",
"< c #37902B",
"1 c #37962B",
"2 c #3C9B37",
"3 c #3CA131",
"4 c #3EA131",
"5 c #3EA731",
"6 c #44AD3E",
"7 c #47B737",
"8 c #46B338",
"9 c #44B438",
"0 c #46BA38",
"q c #4FC73F",
"w c #4DC83F",
"e c #4FCF3F",
"r c #4DC146",
"t c #57DF47",
"y c #57D74F",
"u c #67DF5F",
"i c #6AD763",
"p c #77EF6F",
"a c #979F37",
"s c #F7DF00",
"d c #DE9473",
"f c #5A8CBD",
"g c #FFC594",
"h c #FFD6B5",
"j c #F6F6F6",
"k c white",
/* pixels */
"tttttttttttteeeeeeeetttttttttttttttttttttttttttttttttttttttttttt",
"tttttttttttteeeeeeeetttttttttttttttttttttttttttttttttttttttttttt",
"tttttttttttteeeeeeeetttttttttttttttttttttttttttttttttttttttttttt",
"tttttttttttteeeeeeeetttttttttttttttttttttttttttttttttttttttttttt",
"tttttttteeeesssssssseeeetttttttttttttttttttttttttttttttttttttttt",
"tttttttteeeesssssssseeeetttttttttttttttttttttttttttttttttttttttt",
"tttttttteeeesssssssseeeetttttttttttttttttttttttttttttttttttttttt",
"tttttttteeeesssssssseeeetttttttttttttttttttttttttttttttttttttttt",
"tttteeeessssaaaaaaaasssseeeettttttttt;;;;;;teeeeeeeetttttttttttt",
"tttteeeessssaaaaaaaasssseeeettttttttt;;;;;;teeeeeeeetttttttttttt",
"tttteeeessssaaaaaaaasssseeeettttt----kkkkkk;;eeeeeeetttttttttttt",
"tttteeeessssaaaaaaaasssseeeettttt----kkkkkk;;eeeeeeetttttttttttt",
"eeee7777ssssaaaaaaaassss7777eee--hhkkkkkkhh;;jjjjjjjeeeetttttttt",
"eeee7777ssssaaaaaaaassss7777eee--hhkkkkkkhh;;jjjjjjjeeeetttttttt",
"eeee7777ssssaaaaaaaassss7777e--hhhhhhhh;;;;ejjjjjjjjeeeetttttttt",
"eeee7777ssssaaaaaaaassss7777e--hhhhhhhh;;;;ejjjjjjjjeeeetttttttt",
"eeee77777777ssssssss7777777;;hhgg;;;;;;ejjjjaaaaaaaajjjjeeeetttt",
"eeee77777777ssssssss7777777;;hhgg;;;;;;ejjjjaaaaaaaajjjjeeeetttt",
"eeee77777777ssssssss77777;;hhgg;;ttteeeejjjjaaaaaaaajjjjeeeetttt",
"eeee77777777ssssssss77777;;gg;;etttteeeejjjjaaaaaaaajjjjeeeetttt",
"tttteeee7777777777777777e;;gg;;teeee7777jjjjaaaaaaaajjjj7777eeee",
"tttteeee777777777777777;;hh;;ttteeee7777jjjjaaaaaaaajjjj7777eeee",
"tttteeee777777777777777;;hh;;ttteeee7777jjjjaaaaaaaajjjj7777eeee",
"tttteeee777777777777777;;dd;;ttteeee7777jjjjaaaaaaaajjjj7777eeee",
"ttttttttttttttttttttttt;;dd;;eeeeeee77777777jjjjjjjj77777777eeee",
"ttttttttttttttttttttttt;;;;;;;;;;;;;;7777777jjjjjjjj77777777eeee",
"ttttttttttttttttttttttt;;;;;;;;;;;;;;7777777jjjjjjjj77777777eeee",
"ttttttttttttttttttttt----ddhhkkkkhhdd----777jjjjjjjj77777777eeee",
"ttttttttttttttttttttt----ddhhkkkkhhdd----777777777777777eeeetttt",
"ttttttttttttttttttt--kkhhhhkkkkkkkkhhhhkk--7777777777777eeeetttt",
"ttttttttttttttttttt--kkhhhhkkkkkkkkhhhhkk--7777777777777eeeetttt",
"ttttttttttttttttttt--ddhhhhhhkkkkhhhhhhdd--7777777777777eeeetttt",
"ttttttttttttttttttt--ddhhhhhhkkkkhhhhhhdd--etttttttttttttttttttt",
"tttttttttttttttttttte;;ggkkkkhhhhkkkkgg;;eeetttttttttttttttttttt",
"tttttttttttttttttttte;;ggkkkkhhhhkkkkgg;;eeetttttttttttttttttttt",
"tttttttttttttttttttte;;ddkkffggggffkkdd;;eeetttttttttttttttttttt",
"tttttttttttttttteeee7;;ddkkffggggffkkdd;;777eeeetttttttttttttttt",
"tttttttttttttttteeee7;;ddkkffkkhhffkkdd;;777eeeetttttttttttttttt",
"tttttttttttttttteeee7;;ddkkffkkhhffkkdd;;777eeeetttttttttttttttt",
"tttttttttttttttteeee777----ddhhggdd--;;hh;;7eeeetttttttttttttttt",
"tttttttttttttttteeee777----ddhhggdd--;;hh;;7eeeetttttttttttttttt",
"tttttttttttttttteeee777--hh--------hh--;;gg;;eeetttttttttttttttt",
"tttttttttttttttteeee777--hh--------hh--;;gg;;eeetttttttttttttttt",
"tttttttttttttttteeee77777--ggddddgg----;;dd;;eeetttttttttttttttt",
"ttttttttyyyyyyyytttteeee7--ggddddgg----;;dd;;tttuuuuppppuuuutttt",
"ttttttttyyyyyyyytttteeee7--gghhhhggdd--dd;;ettttuuuuppppuuuutttt",
"ttttttttyyyyyyyytttteee--dd--dddd--dd--;;eeettttuuuuppppuuuutttt",
"ttttttttyyyyyyyytttteee--dd--dddd--dd--;;eeettttuuuuppppuuuutttt",
"ttttyyyyeeeeeeeeyyyyt--hhdd------dd----pyyyyqqqqeeeetttteeeeyyyy",
"ttttyyyyeeeeeeeeyyyyt--hhdd------dd----pyyyyqqqqeeeetttteeeeyyyy",
"ttttyyyyeeeeeeeeyyyyt--gg--339w--dd--pppyyyyqqqqeeeetttteeeeyyyy",
"ttttyyyyeeeeeeeeyyyy9--gg--3399--dd--iiirrrr8888eeeetttteeeeyyyy",
"ttttyyyyeeeeeeeeyyyy93,--,33666--hh--9995000wwww0eeeqqqqeeeetttt",
"ttttyyyyeeeeeeeeyyyy3,:--399666--hh--9995000wwww0eeeqqqqeeeetttt",
"ttttyyyyeeeeeeeeyyyy93::,,3966665--599995000wwww0eeeqqqqeeeetttt",
"ttttyyyyeeeeeeeeyyyyw93&::,322221--199995000wwww0eeeqqqqeeeetttt",
"ttttttttyyyyyyyyttttew3,:$@@$$$$##==42445000wwwwwttttttttttttttt",
"ttttttttyyyyyyyyttttw9,$$X XO@@@++++#%<45500wwwttttttttttttttttt",
"ttttttttyyyyyyyyttttw9,@@  XOOO@oo++#%><5500wwwttttttttttttttttt",
"ttttttttyyyyyyyyttttw93&*OOOOOOXo.++#*<<5500wwtttttttttttttttttt",
"tttttttttttttttttttttt3*&oOOOOOO@@@@%1449wtttttttttttttttttttttt",
"tttttttttttttttttttttttrw1&$@OOO@@**=<99wttttttttttttttttttttttt",
"tttttttttttttttttttttttttttttwwwwww99999wttttttttttttttttttttttt",
"tttttttttttttttttttttttttttttttttttttttttttttttttttttttttttttttt"
};
