/* XPM */
static char *f1f9bbc2a24548afa53cefa07a4ae6fa1IWFekVWHdeo3Cyj[] = {
/* columns rows colors chars-per-pixel */
"13 26 8 1 ",
"  c None",
". c #7C4040",
"X c #8D4051",
"o c #DF9574",
"O c #598DBE",
"+ c #FFC695",
"@ c #FFD7B6",
"# c white",
/* pixels */
"         XXX ",
"       ..###X",
"      .@###@X",
"     .@@@@XX ",
"    X@+XXX   ",
"   X@+X      ",
"   X+X       ",
"  X@X        ",
"  XoX        ",
"  XXXXXXX    ",
" ..o@##@o..  ",
".#@@####@@#. ",
".o@@@##@@@o. ",
" X+##@@##+X  ",
" Xo#O++O#oX  ",
" Xo#O#@O#oX  ",
"  ..o@+o.X@X ",
"  .@....@.X+X",
"   .+oo+..XoX",
"   .+@@+o.oX ",
"  .o.oo.o.X  ",
" .@o...o..   ",
" .+.  .o.    ",
"  .   .@.    ",
"       .     ",
"             "
};
