/* XPM */
static char *_498720e13f34ddc8acd5f3be62f5adc1o0gOWzLmEoRHPDI[] = {
/* columns rows colors chars-per-pixel */
"18 18 10 1 ",
"  c None",
". c black",
"X c #485050",
"o c #984838",
"O c #D85838",
"+ c #F89038",
"@ c #F8D038",
"# c #787880",
"$ c #D8C8F0",
"% c #F8F8F8",
/* pixels */
"    ..........    ",
"    ..........    ",
"  ..++++++++++..  ",
"  ..++++++++++..  ",
"..++%%@@++++++OO..",
"..++%%@@++++++OO..",
"..++@@++++++++OO..",
"..++@@++++++++OO..",
"..++++++++++++OO..",
"..++++++++++++OO..",
"..oo++XX++OOOOOO..",
"..oo++XX++OOOOOO..",
"..##XX%%XXXXXXXX..",
"..##XX%%XXXXXXXX..",
"  ..$$##$$$$$$..  ",
"  ..$$##$$$$$$..  ",
"    ..........    ",
"    ..........    "
};
