/* XPM */
static char *e0c0ed3ccfab4bff8d89aa17eb29a865nJwSfSkP0z0dTMGg[] = {
/* columns rows colors chars-per-pixel */
"64 64 98 2 ",
"   c #020D01",
".  c #031202",
"X  c #051D03",
"o  c #241400",
"O  c #2F1D00",
"+  c #072104",
"@  c #082504",
"#  c #0A2A06",
"$  c #0D2F08",
"%  c #0E3209",
"&  c #10350A",
"*  c #113B0C",
"=  c #2D2D2D",
"-  c gray19",
";  c #3A3A3A",
":  c #573800",
">  c #15420E",
",  c #164A0F",
"<  c #174911",
"1  c #194D12",
"2  c #1C5415",
"3  c #1E5A17",
"4  c #1F5B18",
"5  c #215E19",
"6  c #226219",
"7  c #266B1D",
"8  c #286F1E",
"9  c #27731F",
"0  c #29721F",
"q  c #2A7420",
"w  c #2C7A22",
"e  c gray27",
"r  c #5F5F5F",
"t  c #6F6F6F",
"y  c #717171",
"u  c #2F8125",
"i  c #318526",
"p  c #338927",
"a  c #348B2A",
"s  c #36912B",
"d  c #38952C",
"f  c #3A9C2E",
"g  c #378E31",
"h  c #399234",
"j  c #3C9C34",
"k  c #3E9F38",
"l  c #3EA12F",
"z  c #3FA931",
"x  c #40A631",
"c  c #42AC34",
"v  c #41A53B",
"b  c #42A83C",
"n  c #47B737",
"m  c #45B837",
"M  c #46B639",
"N  c #47B939",
"B  c #49BE3B",
"V  c #4EC63E",
"C  c #4FCF3F",
"Z  c #47B340",
"A  c #4EC347",
"S  c #4FCB40",
"D  c #50CE41",
"F  c #50C748",
"G  c #53CC4B",
"H  c #52D242",
"J  c #57DF47",
"K  c #57D74F",
"L  c #5DCC56",
"P  c #67DF5F",
"I  c #77EF6F",
"U  c #979F37",
"Y  c #F7DF00",
"T  c #112E9E",
"R  c #1230A4",
"E  c #1433AD",
"W  c #1434B0",
"Q  c #354BB4",
"!  c #374DB8",
"~  c #3B52C3",
"^  c #3D55CB",
"/  c #3F58CF",
"(  c #435DDB",
")  c #4B62D6",
"_  c #4D65DB",
"`  c #4F67E0",
"'  c #5169E4",
"]  c #546DEC",
"[  c #6285EE",
"{  c #658AF7",
"}  c #678DFB",
"|  c #698FFF",
" . c #87B9FF",
".. c #CECECE",
"X. c gainsboro",
"o. c #C6EAFF",
"O. c gray90",
"+. c #F6F6F6",
/* pixels */
"J J J J J J J J J J J J C C C C C C C C J J J J J J J J J J J J J J J J J J J J J J J J J J J J J J J J J J J J J J J J J J J J ",
"J J J J J J J J J J J J C C C C C C C C J J J J J J J J J J J J J J J J J J J J J J J J J J J J J J J J J J J J J J J J J J J J ",
"J J J J J J J J J J J J C C C C C C C C J J J J J J J J J J J J J J J J J J J J J J J J J J J J J J J J J J J J J J J J J J J J ",
"J J J J J J J J J J J J C C C C C C C C J J J J J J J J J J J J J J J J J J J J J J J J J J J J J J J J J J J J J J J J J J J J ",
"J J J J J J J J C C C C Y Y Y Y Y Y Y Y C C C C J J J J J J J J J J J J J J J J J J J J J J J J J J J J J J J J J J J J J J J J ",
"J J J J J J J J C C C C Y Y Y Y Y Y Y Y C C C C J J J J J J J J J J J J J J J J J J J J J J J J J J J J J J J J J J J J J J J J ",
"J J J J J J J J C C C C Y Y Y Y Y Y Y Y C C C C J J J J J J J J J J J J J J J J J J J J J J J J J J J J J J J J J J J J J J J J ",
"J J J J J J J J C C C C Y Y Y Y Y Y Y Y C C C C J J J J J J J J J J J J J J J J J J J J J J J J J J J J J J J J J J J J J J J J ",
"J J J J C C C C Y Y Y Y U U U U U U U U Y Y Y Y C C C C J J J J J J J J J J J J J J J J C C C C C C C C J J J J J J J J J J J J ",
"J J J J C C C C Y Y Y Y U U U U U U U U Y Y Y Y C C C C J J J J J J J J J J J J J J J J C C C C C C C C J J J J J J J J J J J J ",
"J J J J C C C C Y Y Y Y U U U U U U U U Y Y Y Y C C C C J J J J J J J J J J J J J J J J C C C C C C C C J J J J J J J J J J J J ",
"J J J J C C C C Y Y Y Y U U U U U U U U Y Y Y Y C C C C J J J J J J J J J J J J J J J J C C C C C C C C J J J J J J J J J J J J ",
"C C C C n n n n Y Y Y Y U U U U U U U U Y Y Y Y n n n n C C C C J J J J J J J J C - - - +.+.+.+.+.+.+.+.C C C C J J J J J J J J ",
"C C C C n n n n Y Y Y Y U U U U U U U U Y Y Y Y n n n n C C C C J J J J J J J J C - - - +.+.+.+.+.+.+.+.C C C C J J J J J J J J ",
"C C C C n n n n Y Y Y Y U U U U U U U U Y Y Y Y n n n n C C C C J J J J J J J - -  . .] - - +.+.+.+.+.+.C C C C J J J J J J J J ",
"C C C C n n N n Y Y Y Y U U U U U U U U Y Y Y Y n n n n C C C C J J J J J J J ; -  . .] - - +.+.+.+.+.+.C C C C J J J J J J J J ",
"C C C C n n n n n n n n Y Y Y Y Y Y Y Y n n n n n n n n C C C C J J J J C - - ( ( o.o.| - - U U U U U U +.+.+.+.C C C C J J J J ",
"C C C C n n n n n n n n Y Y Y Y Y Y Y Y n n n n n n n n C C C C J J J J C - - ( ( o.o.| - - U U U U U U +.+.+.+.C C C C J J J J ",
"C C C C N n n n n n n n Y Y Y Y Y Y Y Y n n n n n n N N C C C C J J J J C ( (  . .o.o. .W W - - - - U U +.+.+.+.C C C C J J J J ",
"C C C C n n n n B n n n Y Y Y Y Y Y Y Y N n n n n n n N C - - - - - - W W ( (  . .o.o.|  . . . .] ] - - +.+.+.+.C C C C J J J J ",
"J J J J C C C C n n n n n n n n n n n n N n n N C C C C J - - - - - - W W ( (  . .o.o.|  . . . .] ] - - +.+.+.+.n n n n C C C C ",
"J J J J C C C C n n n n n n n n n n n n N n n n C - - ] ] | | | | | | | | | | W W | | (  . .| | | | - - +.+.+.+.n n n n C C C C ",
"J J J J C C C C n n n n n n n n n n N n n n n n C - - ] ] | | | | | | | | | | W W | | (  . .| | | | - - +.+.+.+.n n n n C C C C ",
"J J J J C C C C n n n n n n n B n n n n n n n - - | |  . . . . . . . .] ] ] ] | | W W  .| | | | ] ] - - ..X.O.+.n n n B C C C C ",
"J J J J J J J J J J J J J J J J J J J J J J J - - | |  . . . . . . . .] ] ] ] | | W W  .| | | | ] ] - - w p x n n n n n C C C C ",
"J J J J J J J J J J J J J J J J J J J J J J J ] ]  . .o.o.o.o.] ] | |  . .| | | | | | | ( ( ( ( - - t r 1 0 x n n n n n C C C C ",
"J J J J J J J J J J J J J J J J J J J J J J J ] ]  . .o.o.o.o.] ] | |  . .| | | | | | | ( ( ( ( - - y e & 8 c n n n n n C C C C ",
"J J J J J J J J J J J J J J J J J J J J J W E | |  . .o.o.] ] | |  . . . . . .| | | | W - - - - - - t ; & 7 n n n n n n C C C C ",
"J J J J J J J J J J J J J J J J J J J J J E E | |  . .o.o.] ] | |  . . . . . .| | | | W - - - - - - > & , 0 x n C C C C J J J J ",
"J J J J J J J J J J J J J J J J J J J J J - - | |  . . . .] ] o.o. . . . . . .| | | | W < # X . X @ * > 2 0 c n C C C C J J J J ",
"J J J J J J J J J J J J J J J J J J J J J - - | |  . . . .] ] o.o. . . . . . .| | | | W #       . @ , 1 6 i c n C C C C J J J J ",
"J J J J J J J J J J J J J J J J J J J J J - - | | | | W W | |  . . . . . .| | | | ( ( - @   . X $ & < 5 0 p n B C C C C J J J J ",
"J J J J J J J J J J J J J J J J J J J J C - - | | | | W E | |  . . . . . .| | | | ( ( - * % , 7 7 3 7 w a f S J J J J J J J J J ",
"J J J J J J J J J J J J J J J J J J J J C - - ] ] | | W E | |  . . . .| | | | ] ] ( ( - 2 6 u j a w u u u s S J J J J J J J J J ",
"J J J J J J J J J J J J J J J J J J J J C - - ] ] | | E W | |  . . . .| | | } _ _ / ( - 5 u c M M M M z j z D J J J J J J J J J ",
"J J J J J J J J J J J J J J ( ( - - - W E ] ] ( ( E E ' ] | | | | | | } { ` _ ! Q T E , 2 u M V S J J H H H J J J J J J J J J J ",
"J J J J J J J J J J J J J J ( ( - - - W E ] ] ( ( E T ) ( [ [ [ [ [ [ [ [ ) ) Q Q T E , 3 0 n V H J J J J J J J J J J J J J J J ",
"J J J J J J J J J J J J - - W W  . . .] ] | |  . .E T ! ~ ) ) ) ) ) _ ) _ ( ( ( ^ = - 3 9 s m C J J J J J J J J J J J J J J J J ",
"J J J J J J J J J J J J - - W W  . . .] ] | |  . .E R ^ ^ _ _ _ _ ` _ ` ` ( ( ( ) = = 7 d m C C J J J J J J J J J J J J J J J J ",
"J J J J J J J J J J J J - - W W W W W  . . . .o.o.| | - - ( ( ( ( ( ( ( ( R T = = * 6 u z V C C J J J J J J J J J J J J J J J J ",
"J J J J J J J J J J J J - - E W W W W  . . . .o.o.| | - - ( ( ( ( ( ( ( ( E W - - * 8 p V C C C J J J J J J J J J J J J J J J J ",
"J J J J J J J J J J J J A q - - ] ] ] W W o.o.| | | | W W - - - - - - - - * & % * 2 8 i V C C C J J J J J J J J J J J J J J J J ",
"J J J J J J J J J J J J H u - - ] ] ] W W o.o.| | | | W W - - - - - - - - $ & > 2 7 w s C C C C J J J J J J J J J J J J J J J J ",
"J J J J J J J J J J J J J j p 7 - - ] W W ] ] ] ] o.o.W W : o o O O O : & * 5 0 i p f l C C C C J J J J J J J J J J J J J J J J ",
"J J J J J J J J K K K K K K F j - - ( W W W W  . .o.o.- - # + # & * > 5 5 w s l V V C C C J J J P P P P I I I I P P P P J J J J ",
"J J J J J J J J K K K K K K K b - - ( W W W W  . .o.o.- - % $ 2 7 8 w p d l n n C C C C J J J J P P P P I I I I P P P P J J J J ",
"J J J J J J J J K K K K K K K G M a - ( ( ( ) W W W W - - * % 3 i x c n n n n n C C C C J J J J P P P P I I I I P P P P J J J J ",
"J J J J J J J J K K K K K K K K B d - ( ( ( ( W W W W - - 1 2 8 f n n n n n n n C C C C J J J J P P P P I I I I P P P P J J J J ",
"J J J J K K K K H C C C C C C C F b g - - - - ( ( ] ] - - 4 u M L P P P I I I I K K K K V V V V D C C C J J J J D C C C K K K K ",
"J J J J K K K K C C C C C C C C K F j - - - - ( ( ] ] - - 7 f J P P P P I I I I K K K K V V A S C C C C J J J J C C C C K K K K ",
"J J J J K K K K C C C C C C C C K G Z b x d d - - - - 5 8 a n J P P P P I I I I K K K K V V C V C C C C J J J J C C C C K K K K ",
"J J J J K K K K C C C C C C C C K K K F B x g - - = = 5 w d V J P P P P I I I I K K K K V V V V C C C C J J J J C C C C K K K K ",
"J J J J K K K K C C C C C C C C K K K K K B n l s 2 5 5 a k F K C C C C J J J J C C C C J J J J C C C C V V V V C C C C J J J J ",
"J J J J K K K K C C C C H C C C K K K K J J J J V l a w h Z K K C C C C J J J J C C C C J J J J C C C C C V S V C C C C J J J J ",
"J J J J K K K K C C C C C C C C K K K K J J J J J J N x v G K K C C C C J J J J C C C C J J J J C C C C S S V V C C C C J J J J ",
"J J J J K K K K C C C C C C C C K K K K J J J J J J H S Z L K K C C C C J J J J C C C C J J J J C C C C V V V S C C C C J J J J ",
"J J J J J J J J K K K K K K K K J J J J J J J J J J J J J J J J C C C C V V D V C C C C J J J J J J J J J J J J J J J J J J J J ",
"J J J J J J J J K K K K K K K K J J J J J J J J J J J J J J J J C C C C V V V V C C C C J J J J J J J J J J J J J J J J J J J J ",
"J J J J J J J J K K K K K K K K J J J J J J J J J J J J J J J J C C C C S V V D C C C C J J J J J J J J J J J J J J J J J J J J ",
"J J J J J J J J K K K K K K K K J J J J J J J J J J J J J J J J C C C C V V V V C C C D J J J J J J J J J J J J J J J J J J J J ",
"J J J J J J J J J J J J J J J J J J J J J J J J J J J J J J J J J J J J J J J J J J J J J J J J J J J J J J J J J J J J J J J J ",
"J J J J J J J J J J J J J J J J J J J J J J J J J J J J J J J J J J J J J J J J J J J J J J J J J J J J J J J J J J J J J J J J ",
"J J J J J J J J J J J J J J J J J J J J J J J J J J J J J J J J J J J J J J J J J J J J J J J J J J J J J J J J J J J J J J J J ",
"J J J J J J J J J J J J J J J J J J J J J J J J J J J J J J J J J J J J J J J J J J J J J J J J J J J J J J J J J J J J J J J J "
};
